# xmcd CD database file
#
# Track frame offsets:
#	182
#	13677
#	27730
#	40845
#	53475
#	67212
#	81432
#	94872
#	108940
#	121722
#	134385
#	148940
#	162882
#	175517
#	189107
#	201085
#	215750
#	229565
#	241610
#	255597
#	269737
#	283825
#	295515
#	307280
#	320982
#
# Disc length: 4447 seconds
#
# Revision: 1
# Processed by: cddbd v1.5.2PL0 Copyright (c) Steve Scherf et al.
# Submitted via: CDex 1.70beta2
#
DISCID=76115d19
DTITLE=Artie Shaw - What Is This Thing Called Love
DYEAR=1946
DGENRE=Jazz
TTITLE0=Let's Walk
TTITLE1=Love Of My Life
TTITLE2=How Deep Is The Ocean
TTITLE3=The Glider
TTITLE4=The Hornet
TTITLE5=They Can't Convince Me
TTITLE6=I Got The Sun In The Morning
TTITLE7=Along With Me
TTITLE8=You Do Something To Me
TTITLE9=In The Still Of The Night
TTITLE10=Begin The Beguine
TTITLE11=My Heart BelongsTo Daddy
TTITLE12=Night And Day
TTITLE13=What Is This Thing Called Love?
TTITLE14=I've Got You Under My Skin
TTITLE15=Get Out Of Town
TTITLE16=For You, For Me, For Evermore
TTITLE17=Changing My Tune
TTITLE18=Love For Sale
TTITLE19=They Can't Convince Me
TTITLE20=Guilty
TTITLE21=And So To Bed
TTITLE22=Don't You Believe It Dear
TTITLE23=It's The Same Old Dream
TTITLE24=I Believe
EXTD=YEAR: 1946
EXTT0=
EXTT1=
EXTT2=
EXTT3=
EXTT4=
EXTT5=
EXTT6=
EXTT7=
EXTT8=
EXTT9=
EXTT10=
EXTT11=
EXTT12=
EXTT13=
EXTT14=
EXTT15=
EXTT16=
EXTT17=
EXTT18=
EXTT19=
EXTT20=
EXTT21=
EXTT22=
EXTT23=
EXTT24=
PLAYORDER=
